<svg version="1.1" id="Layer_1" xmlns="http://www.w3.org/2000/svg" xmlns:xlink="http://www.w3.org/1999/xlink" x="0px" y="0px"
	 width="100%" viewBox="0 0 237 252" enable-background="new 0 0 237 252" xml:space="preserve">
<path fill="#000000" opacity="1.000000" stroke="none" 
	d="
M153.000000,253.000000 
	C102.000000,253.000000 51.500008,253.000000 1.000007,253.000000 
	C1.000005,169.000015 1.000005,85.000015 1.000002,1.000018 
	C79.999985,1.000012 158.999969,1.000012 237.999969,1.000006 
	C237.999969,84.999985 237.999969,168.999969 237.999985,252.999969 
	C209.833328,253.000000 181.666672,253.000000 153.000000,253.000000 
M64.392487,155.197815 
	C64.261330,155.813019 64.130173,156.428223 63.356762,157.276337 
	C57.808441,163.195114 54.091450,169.698013 56.015171,178.287613 
	C58.053265,187.387878 63.726280,193.631088 70.794525,199.349701 
	C86.983360,212.447433 105.294518,221.281693 124.997696,227.371002 
	C135.284042,230.550003 138.427841,228.057816 138.985931,217.597549 
	C139.010086,217.144455 139.301910,216.705627 139.001205,217.507080 
	C149.553894,214.666031 159.600388,212.889633 168.896759,209.215317 
	C179.677139,204.954498 187.884796,196.690567 194.824249,187.485092 
	C204.558197,174.572556 208.735504,159.480347 208.651169,143.702301 
	C208.577255,129.874344 204.063873,116.819237 195.961914,105.309189 
	C191.933762,99.586609 188.205963,93.513290 181.175217,90.352180 
	C183.761826,86.996330 186.832809,83.902718 188.824173,80.224594 
	C191.996979,74.364288 192.991425,68.257622 189.477783,61.790855 
	C184.728638,53.050110 177.932755,46.194168 169.735931,41.125618 
	C158.946579,34.453976 147.708344,28.413235 136.272247,22.914053 
	C127.841011,18.859795 118.937508,15.320978 108.908134,17.459869 
	C108.456940,20.954313 108.003075,24.469408 107.532127,28.116795 
	C94.777367,28.073282 83.317902,31.695549 72.658318,38.092339 
	C64.119179,43.216656 56.365871,49.434341 51.077919,57.834972 
	C41.199623,73.527977 36.017403,90.534988 38.979507,109.407509 
	C41.885712,127.923904 49.709820,143.544647 64.994804,155.002686 
	C64.994804,155.002686 64.984444,154.953720 64.392487,155.197815 
z"/>
<path fill="#6799FC" opacity="1.000000" stroke="none" 
	d="
M64.946609,154.990540 
	C49.709820,143.544647 41.885712,127.923904 38.979507,109.407509 
	C36.017403,90.534988 41.199623,73.527977 51.077919,57.834972 
	C56.365871,49.434341 64.119179,43.216656 72.658318,38.092339 
	C83.317902,31.695549 94.777367,28.073282 107.532127,28.116795 
	C108.003075,24.469408 108.456940,20.954313 108.908134,17.459869 
	C118.937508,15.320978 127.841011,18.859795 136.272247,22.914053 
	C147.708344,28.413235 158.946579,34.453976 169.735931,41.125618 
	C177.932755,46.194168 184.728638,53.050110 189.477783,61.790855 
	C192.991425,68.257622 191.996979,74.364288 188.824173,80.224594 
	C186.832809,83.902718 183.761826,86.996330 180.802277,90.798447 
	C178.985046,92.566605 177.540756,93.888489 175.745209,95.176056 
	C174.333572,96.195831 173.443115,97.553551 172.186401,98.256775 
	C160.328705,104.892059 148.477127,111.545570 136.463821,117.890953 
	C132.951401,119.746193 128.927368,120.632805 124.848228,121.663757 
	C124.366501,115.288536 124.212875,109.211380 123.970337,103.137787 
	C123.768135,98.074409 123.461678,93.015205 123.250275,87.613129 
	C124.985680,85.614502 126.442192,83.569168 128.417053,82.397560 
	C130.878784,80.937096 133.817047,80.306267 136.459457,79.117012 
	C139.477158,77.758842 142.974579,75.852859 141.764374,72.157532 
	C140.960632,69.703354 138.130600,67.277496 135.618317,66.136963 
	C128.005188,62.680733 119.924652,63.424641 111.984978,65.054985 
	C97.532043,68.022774 85.783539,75.372986 76.960457,87.271988 
	C70.759956,95.634102 66.929604,104.700790 65.643677,115.303627 
	C64.179405,127.376968 66.155502,138.430344 71.114357,149.553284 
	C69.017914,151.590256 66.982262,153.290405 64.946609,154.990540 
z"/>
<path fill="#1C65EC" opacity="1.000000" stroke="none" 
	d="
M176.096466,95.210365 
	C177.540756,93.888489 178.985046,92.566605 180.744965,91.135666 
	C188.205963,93.513290 191.933762,99.586609 195.961914,105.309189 
	C204.063873,116.819237 208.577255,129.874344 208.651169,143.702301 
	C208.735504,159.480347 204.558197,174.572556 194.824249,187.485092 
	C187.884796,196.690567 179.677139,204.954498 168.896759,209.215317 
	C159.600388,212.889633 149.553894,214.666031 139.001205,217.507080 
	C139.301910,216.705627 139.010086,217.144455 138.985931,217.597549 
	C138.427841,228.057816 135.284042,230.550003 124.997696,227.371002 
	C105.294518,221.281693 86.983360,212.447433 70.794525,199.349701 
	C63.726280,193.631088 58.053265,187.387878 56.015171,178.287613 
	C54.091450,169.698013 57.808441,163.195114 63.932220,156.978516 
	C64.666603,156.105042 64.825523,155.529373 64.984444,154.953720 
	C64.984444,154.953720 64.994804,155.002686 64.970703,154.996613 
	C66.982262,153.290405 69.017914,151.590256 71.414703,149.372894 
	C86.553963,137.248825 103.096725,129.000061 121.273209,123.126900 
	C122.110588,126.467949 122.737350,129.736313 122.907936,133.028320 
	C123.308189,140.752686 123.490158,148.488358 123.644997,156.536469 
	C122.196236,160.449966 119.586044,162.506226 115.922409,163.528488 
	C113.419281,164.226929 110.868668,165.011917 108.600349,166.240265 
	C104.235138,168.604172 102.665062,173.313599 105.497581,175.868607 
	C107.579788,177.746811 110.434395,179.787186 113.022331,179.895081 
	C120.753738,180.217361 128.649277,180.420181 136.250763,179.216980 
	C150.453949,176.968781 161.471497,168.710129 169.887299,157.475174 
	C177.283310,147.601608 181.761902,136.393906 182.149719,123.671608 
	C182.457153,113.586609 179.082916,104.486794 176.096466,95.210365 
z"/>
<path fill="#6799FC" opacity="1.000000" stroke="none" 
	d="
M64.688461,155.075775 
	C64.825523,155.529373 64.666603,156.105042 64.253349,156.862061 
	C64.130173,156.428223 64.261330,155.813019 64.688461,155.075775 
z"/>
<path fill="#000000" opacity="1.000000" stroke="none" 
	d="
M175.745209,95.176056 
	C179.082916,104.486794 182.457153,113.586609 182.149719,123.671608 
	C181.761902,136.393906 177.283310,147.601608 169.887299,157.475174 
	C161.471497,168.710129 150.453949,176.968781 136.250763,179.216980 
	C128.649277,180.420181 120.753738,180.217361 113.022331,179.895081 
	C110.434395,179.787186 107.579788,177.746811 105.497581,175.868607 
	C102.665062,173.313599 104.235138,168.604172 108.600349,166.240265 
	C110.868668,165.011917 113.419281,164.226929 115.922409,163.528488 
	C119.586044,162.506226 122.196236,160.449966 123.763840,156.058044 
	C124.002449,145.862701 123.951447,136.462143 124.061684,127.063469 
	C124.081673,125.359459 124.762222,123.663208 125.137817,121.963379 
	C128.927368,120.632805 132.951401,119.746193 136.463821,117.890953 
	C148.477127,111.545570 160.328705,104.892059 172.186401,98.256775 
	C173.443115,97.553551 174.333572,96.195831 175.745209,95.176056 
z"/>
<path fill="#000000" opacity="1.000000" stroke="none" 
	d="
M120.855293,123.064964 
	C103.096725,129.000061 86.553963,137.248825 71.475494,149.036072 
	C66.155502,138.430344 64.179405,127.376968 65.643677,115.303627 
	C66.929604,104.700790 70.759956,95.634102 76.960457,87.271988 
	C85.783539,75.372986 97.532043,68.022774 111.984978,65.054985 
	C119.924652,63.424641 128.005188,62.680733 135.618317,66.136963 
	C138.130600,67.277496 140.960632,69.703354 141.764374,72.157532 
	C142.974579,75.852859 139.477158,77.758842 136.459457,79.117012 
	C133.817047,80.306267 130.878784,80.937096 128.417053,82.397560 
	C126.442192,83.569168 124.985680,85.614502 123.164841,88.048386 
	C123.024094,97.310150 123.114349,105.797409 122.959366,114.280182 
	C122.904243,117.297440 124.322052,120.811516 120.855293,123.064964 
z"/>
<path fill="#A1BCFA" opacity="1.000000" stroke="none" 
	d="
M121.273209,123.126900 
	C124.322052,120.811516 122.904243,117.297440 122.959366,114.280182 
	C123.114349,105.797409 123.024094,97.310150 123.115974,88.389404 
	C123.461678,93.015205 123.768135,98.074409 123.970337,103.137787 
	C124.212875,109.211380 124.366501,115.288536 124.848221,121.663757 
	C124.762222,123.663208 124.081673,125.359459 124.061684,127.063469 
	C123.951447,136.462143 124.002449,145.862701 123.879318,155.741028 
	C123.490158,148.488358 123.308189,140.752686 122.907936,133.028320 
	C122.737350,129.736313 122.110588,126.467949 121.273209,123.126900 
z"/>
</svg>